<svg width="160" height="28" viewBox="0 0 160 28" fill="none" xmlns="http://www.w3.org/2000/svg">
<path d="M160 12.7083C160 13.6477 160 14.5871 159.759 15.2982C159.054 15.0634 158.343 15.0634 157.41 15.0634C156.706 15.0634 155.995 15.2982 155.29 15.2982C155.29 27.0606 155.29 27.0606 155.29 27.0606C152.231 27.0606 152.231 27.0606 152.231 27.0606C152.231 13.4129 152.231 13.4129 152.231 13.4129C153.405 12.9432 155.753 12.4734 157.41 12.4734C158.35 12.4734 159.289 12.4734 160 12.7083ZM139.524 18.5862C146.582 18.5862 146.582 18.5862 146.582 18.5862C146.582 16.466 145.166 15.0569 143.046 15.0569C140.939 15.0569 139.765 16.2377 139.524 18.5862ZM149.406 21.1761C139.765 21.1761 139.765 21.1761 139.765 21.1761C139.993 23.7661 141.409 24.9404 144.234 24.9404C145.877 24.9404 147.521 24.4706 149.172 23.7661C148.93 24.7055 148.702 25.6514 148.702 26.5909C147.286 27.2954 145.636 27.5303 144.234 27.5303C139.054 27.5303 136.464 24.7055 136.464 20.0019C136.464 15.7679 138.578 12.4734 143.288 12.4734C147.756 12.4734 149.641 15.2982 149.641 18.8276C149.641 19.767 149.406 20.4716 149.406 21.1761ZM131.057 24.0009C131.057 15.2917 131.057 15.2917 131.057 15.2917C130.352 15.2917 129.413 15.0569 128.708 15.0569C125.649 15.0569 124.24 16.9357 124.24 20.2302C124.24 23.055 125.414 24.9338 128.004 24.9338C129.172 24.9404 130.117 24.4706 131.057 24.0009ZM134.11 7.76328C134.11 27.0606 134.11 27.0606 134.11 27.0606C131.292 27.0606 131.292 27.0606 131.292 27.0606C131.05 25.4166 131.05 25.4166 131.05 25.4166C130.346 26.5909 129.165 27.5368 127.058 27.5368C123.522 27.5368 121.174 24.712 121.174 20.2432C121.174 15.3048 123.764 12.48 128.702 12.48C129.648 12.48 130.346 12.7148 131.05 12.7148C131.05 8.24604 131.05 8.24604 131.05 8.24604C131.996 7.76328 133.177 7.76328 134.11 7.76328ZM118.584 17.8816C118.584 27.0606 118.584 27.0606 118.584 27.0606C115.525 27.0606 115.525 27.0606 115.525 27.0606C115.525 18.3579 115.525 18.3579 115.525 18.3579C115.525 16.2377 114.821 15.0634 111.761 15.0634C111.057 15.0634 110.346 15.2982 109.4 15.2982C109.4 27.0606 109.4 27.0606 109.4 27.0606C106.341 27.0606 106.341 27.0606 106.341 27.0606C106.341 13.4129 106.341 13.4129 106.341 13.4129C108.226 12.9432 110.346 12.4734 111.99 12.4734C116.941 12.4734 118.584 14.5871 118.584 17.8816ZM99.9935 24.0009C99.9935 15.2917 99.9935 15.2917 99.9935 15.2917C99.289 15.2917 98.5779 15.0569 97.88 15.0569C94.5858 15.0569 93.1702 17.1771 93.1702 20.2302C93.1702 23.055 94.3444 24.9338 96.9341 24.9338C98.1148 24.9404 99.289 24.7055 99.9935 24.0009ZM103.053 13.4129C103.053 27.0606 103.053 27.0606 103.053 27.0606C100.235 27.0606 100.235 27.0606 100.235 27.0606C99.9935 25.4166 99.9935 25.4166 99.9935 25.4166C99.289 26.5909 98.1083 27.5368 96.2296 27.5368C92.4658 27.5368 90.1174 24.712 90.1174 20.2432C90.1174 15.3048 92.7071 12.48 97.8865 12.48C99.7652 12.4734 101.409 12.7083 103.053 13.4129ZM86.5819 24.9404C87.5277 24.9404 88.467 24.7055 89.1715 24.4706C88.9432 25.1752 88.9432 26.1146 88.7019 27.0606C87.9974 27.2954 87.0581 27.5303 86.1122 27.5303C83.2877 27.5303 81.4025 26.1212 81.4025 22.8267C81.4025 8.23952 81.4025 8.23952 81.4025 8.23952C82.3483 8.00466 83.2877 7.7698 84.227 7.7698C84.227 12.9497 84.227 12.9497 84.227 12.9497C89.165 12.9497 89.165 12.9497 89.165 12.9497C89.165 13.8891 88.9367 14.835 88.9367 15.5396C84.227 15.5396 84.227 15.5396 84.227 15.5396C84.227 22.3635 84.227 22.3635 84.227 22.3635C84.2335 24.2358 85.1794 24.9404 86.5819 24.9404ZM78.3496 17.8816C78.3496 27.0606 78.3496 27.0606 78.3496 27.0606C75.2903 27.0606 75.2903 27.0606 75.2903 27.0606C75.2903 18.3579 75.2903 18.3579 75.2903 18.3579C75.2903 16.2377 74.5858 15.0634 71.5264 15.0634C70.8219 15.0634 69.8826 15.2982 68.9367 15.2982C68.9367 27.0606 68.9367 27.0606 68.9367 27.0606C65.8774 27.0606 65.8774 27.0606 65.8774 27.0606C65.8774 13.4129 65.8774 13.4129 65.8774 13.4129C67.9974 12.9432 70.1109 12.4734 71.5264 12.4734C76.7058 12.4734 78.3496 14.5871 78.3496 17.8816ZM59.5303 24.0009C59.5303 15.2917 59.5303 15.2917 59.5303 15.2917C59.0607 15.2917 58.3562 15.0569 57.4103 15.0569C54.3509 15.0569 52.7071 17.1771 52.7071 20.2302C52.7071 23.055 53.8813 24.9338 56.7058 24.9338C57.88 24.9404 58.8193 24.7055 59.5303 24.0009ZM62.5897 13.4129C62.5897 27.0606 62.5897 27.0606 62.5897 27.0606C59.7652 27.0606 59.7652 27.0606 59.7652 27.0606C59.7652 25.4166 59.7652 25.4166 59.7652 25.4166C58.8258 26.5909 57.6451 27.5368 55.7665 27.5368C52.2374 27.5368 49.6477 24.712 49.6477 20.2432C49.6477 15.3048 52.2374 12.48 57.4103 12.48C59.5303 12.4734 61.1742 12.7083 62.5897 13.4129ZM35.0554 26.5909C35.0554 25.4166 35.2903 24.7055 35.5251 23.7661C37.1689 24.4706 39.0541 24.7055 40.698 24.7055C43.2877 24.7055 44.6967 24.0009 44.6967 22.3504C44.6967 20.7064 43.5225 19.9953 40.9328 18.8211C39.5238 18.3514 39.5238 18.3514 39.5238 18.3514C36.9341 17.1771 35.2903 15.7614 35.2903 12.7018C35.2903 9.64213 37.4103 7.5219 41.8787 7.5219C43.7639 7.5219 45.4077 7.75676 46.8167 8.22647C46.8167 9.40075 46.5819 10.3467 46.347 11.0513C44.938 10.5815 43.0528 10.3467 41.8787 10.3467C39.5238 10.3467 38.3496 11.2861 38.3496 12.7018C38.3496 14.1109 39.289 15.0569 41.409 15.7614C42.818 16.466 42.818 16.466 42.818 16.466C46.347 17.8751 47.756 19.5256 47.756 22.1156C47.756 25.4101 45.4012 27.5303 40.698 27.5303C38.3496 27.5303 36.471 27.2954 35.0554 26.5909ZM21.1742 12.9432C20.9393 11.7689 20.7045 10.8229 20.2348 9.8835C15.5316 1.87884 15.5316 1.87884 15.5316 1.87884C15.2968 1.40913 15.062 0.704567 14.8271 0C14.8271 0.469711 14.8271 0.469711 14.8271 0.469711C13.653 2.35508 13.653 4.70363 14.8271 6.82386C18.3562 13.178 18.3562 13.178 18.3562 13.178C19.5303 15.0634 19.5303 17.6468 18.3562 19.5322C18.1213 20.0019 18.1213 20.0019 18.1213 20.0019C18.1213 19.2973 17.8865 18.5927 17.4168 17.8816C14.1226 11.9972 14.1226 11.9972 14.1226 11.9972C12.0026 8.46785 12.0026 8.46785 12.0026 8.46785C11.5329 7.76328 11.2981 7.05871 11.2981 6.34762C11.0633 6.81733 11.0633 6.81733 11.0633 6.81733C9.8891 8.7027 9.8891 11.0513 11.0633 13.1715C14.8271 19.5256 14.8271 19.5256 14.8271 19.5256C15.7665 21.6459 15.7665 23.9944 14.8271 25.8798C14.5923 26.3495 14.5923 26.3495 14.5923 26.3495C14.3575 25.6449 14.1226 24.9404 13.8878 24.4641C9.1846 16.466 9.1846 16.466 9.1846 16.466C8.4801 15.2917 8.24527 14.1109 8.24527 12.9366C3.29419 14.1174 0 16.9422 0 20.0019C0 24.4706 6.58839 28 14.8206 28C22.818 28 29.4064 24.4706 29.4064 20.0019C29.4129 16.9422 26.1187 14.1174 21.1742 12.9432Z" fill="white"/>
</svg>
